PathFileType	4	(X/Y/Z)	Patient4_TMGait_0pt4_03_right_32.trc.trc
DataRate	CameraRate	NumFrames	NumMarkers	Units	OrigDataRate	OrigDataStartFrame	OrigNumFrames
73.684210526316	73.684210526316	4	33	mm	73.684210526316	106	       141
Frame#	Time	Sacral			L.Shoulder			Chest			R.Shoulder			Neck			R.ASIS			L.ASIS			R.Thigh.Superior			R.Thigh.Lateral			R.Thigh.Inferior			R.Patella			L.Thigh.Superior			L.Thigh.Lateral			L.Thigh.Inferior			L.Patella			L.Shank.Superior			L.Shank.Lateral			L.Shank.Inferior			R.Shank.Superior			R.Shank.Lateral			R.Shank.Inferior			R.Heel			R.Midfoot.Superior			R.Midfoot.Lateral			R.Toe			L.Heel			L.Midfoot.Lateral			L.Midfoot.Superior			L.Toe			L.Elbow			L.Wrist			R.Elbow			R.Wrist			
		X1	Y1	Z1	X2	Y2	Z2	X3	Y3	Z3	X4	Y4	Z4	X5	Y5	Z5	X6	Y6	Z6	X7	Y7	Z7	X8	Y8	Z8	X9	Y9	Z9	X10	Y10	Z10	X11	Y11	Z11	X12	Y12	Z12	X13	Y13	Z13	X14	Y14	Z14	X15	Y15	Z15	X16	Y16	Z16	X17	Y17	Z17	X18	Y18	Z18	X19	Y19	Z19	X20	Y20	Z20	X21	Y21	Z21	X22	Y22	Z22	X23	Y23	Z23	X24	Y24	Z24	X25	Y25	Z25	X26	Y26	Z26	X27	Y27	Z27	X28	Y28	Z28	X29	Y29	Z29	X30	Y30	Z30	X31	Y31	Z31	X32	Y32	Z32	X33	Y33	Z33	

106	42.965000000000	847.431623561157	1010.939190634430	401.660598028586	1041.761837884720	1437.198499067552	215.912817137396	1134.690624874816	1370.987071808149	383.626683713993	1041.567909367802	1444.809820370451	552.742973964810	1012.402685195523	1501.160138510661	371.675140246943	1073.549243568329	954.022531314286	527.459677777876	1068.511602456450	965.433453627145	253.138374388987	1161.186114839944	788.206844443311	501.504054321432	1127.274403649031	668.507133372911	582.150763073670	1217.983217034531	629.929042901842	505.146470854451	1243.647464168877	522.639130450261	532.768427408922	1107.107554632138	748.505280297191	282.015901534286	1010.903601951102	636.908896936314	222.540729939895	1090.652831587641	555.986539770225	285.031033914310	1086.622692411291	488.126613529053	296.053593627010	1060.180688739748	417.040840927589	288.455484981196	969.225093347628	303.564771112041	238.932580261641	1017.051596199747	191.834027025847	310.992644014147	1176.522908650546	440.777978166786	543.523173987445	1062.441932641178	387.587883495306	607.759442885895	1062.218622787816	275.535232680267	563.164941807104	872.471918687969	192.366517295705	543.916470332444	1045.039040637689	144.225191051072	575.230033371421	937.851242813284	133.634441409049	612.898751961011	1120.263833599659	36.992693130165	595.090609463845	888.729757589347	38.753993703855	358.730448121110	958.538588287221	35.352694262125	274.293205708794	1043.484446691444	95.271620462942	298.834043738832	1170.511377292116	42.828830537004	262.864800086031	1084.951701893843	1103.136406979770	64.819152180927	1294.575058247635	945.583714047517	37.654301815714	975.479061455344	1100.497739359485	667.508232044993	1028.861464245819	843.344654852803	665.404345815064	
107	42.978571428571	846.716020547051	1011.527592892776	400.128146873483	1044.096046960955	1437.500640599048	215.844747131703	1135.167020745038	1370.815378372975	384.358136247204	1040.674171633873	1444.821724980753	552.607213016398	1013.190231962948	1501.324630604181	371.555759165623	1071.845541684808	954.440239504767	527.829412985033	1068.811579127832	965.263758505285	253.427169704103	1159.980566679942	789.459884599625	502.273319360316	1126.450822647452	669.620450826756	582.974188595539	1217.201318807374	631.298224058940	506.142931347364	1244.059631553434	525.686626884511	533.909837695385	1105.153945176679	747.742148471795	283.209955830879	1008.435271607463	636.971050127785	222.446922367369	1086.879497430368	555.369887126189	285.524558914604	1082.146372192734	487.669847499369	296.402502325820	1055.643346132278	416.790588869679	288.617939381348	964.545895296812	303.539410942436	238.904699321225	1011.796796223599	191.682386989032	311.077833652498	1180.432779330627	442.061813411516	544.779326786999	1069.675378616219	383.274482416506	609.387512449403	1075.092407834336	271.384755920688	564.767197457971	890.024594096490	178.156338761841	545.904497531483	1064.600819870519	139.773768574055	576.995205076202	958.532975643175	123.690454812709	615.171470420106	1145.689023619047	37.448192968132	597.626440224716	883.244677164872	38.759308174242	358.693208011450	953.078021906132	35.335422064797	274.272014435515	1038.038056887931	95.228552059259	298.854456838481	1165.069861533596	42.752794171416	262.869217526094	1089.152007725869	1104.847973951598	63.111282601619	1305.459059247650	956.563182776048	36.833977449860	967.604201794444	1101.857938101824	666.351168496711	1010.631119078096	842.735141254520	665.557926145671	
108	42.992142857143	846.098939784599	1012.069826070548	398.739824243990	1046.494372140109	1437.647384976396	215.936731566041	1135.748055418987	1370.532997838353	385.222073463482	1039.970080156047	1444.807472959162	552.589980925167	1014.083006492880	1501.397272614079	371.543858486758	1070.215100723324	954.661316505849	528.386060805757	1069.157459454931	965.032232534022	253.871606680070	1158.344226392068	790.012281906816	503.329542315390	1124.588452783013	670.105102799379	583.941897572166	1215.304217445550	631.741708286238	507.359376844692	1243.070468373526	528.100309122811	535.083502129594	1103.172753370923	746.945418937851	284.462606020819	1005.921712002994	637.024349222585	222.384214258785	1083.016806135221	554.741598613570	286.037418732595	1077.584145969803	487.223331759765	296.743038194462	1051.039113675339	416.547258027904	288.773003659755	959.810800698145	303.507016677674	238.874286827689	1006.531980891776	191.536105554271	311.152113371050	1183.462595698698	442.909669716741	546.115172657271	1076.896701937381	378.188885669394	611.366191799744	1088.444625356511	266.850756152968	566.602077709717	909.258689177145	162.859435701159	548.373827403425	1085.417347885279	135.333617518454	579.055126990906	980.978714898991	113.314962248044	617.872252854980	1172.597033988815	38.683866152240	600.441071631915	877.770788991979	38.755760155906	358.659664077261	947.616189114127	35.310833794776	274.251799092860	1032.588051939620	95.183929090458	298.873292458866	1159.624072803933	42.683194647613	262.876394768098	1093.065994442572	1106.330903138869	61.665157341968	1315.429512497035	967.302093353637	36.481434323872	959.877481603725	1103.425631676488	665.407131317893	993.686160480936	842.999683506406	665.656600453893	
109	43.005714285714	845.607435680806	1012.562332934706	397.523645901959	1048.915026949973	1437.639435207596	216.193740179687	1136.426622198200	1370.152828718894	386.211909877412	1039.467421552871	1444.773856118559	552.700267073619	1015.067607266933	1501.380832603703	371.644829663922	1068.700689748055	954.683768259187	529.120406113649	1069.555179845315	964.749477744546	254.462879002728	1156.241427526836	789.802448964485	504.638929844072	1121.647322287421	669.949998012976	585.051786062585	1212.235289112378	631.226860048477	508.760583984833	1240.642773431122	529.835987896257	536.225018417106	1101.204415430830	746.114351877189	285.715850051114	1003.367169926137	637.066471434156	222.361766098339	1079.091474867416	554.101556385755	286.555827209353	1072.970846096981	486.786109091704	297.070939097142	1046.393019013378	416.309547409683	288.923298351828	955.033412748680	303.473932607598	238.843853637500	1001.268158492195	191.395258191718	311.214567738992	1185.543023710315	443.378828756298	547.484749340159	1084.053858938624	372.537230888940	613.644221944660	1102.120428529185	262.211238859224	568.599105037004	930.094257611021	146.981679571735	551.243446570476	1107.257396811621	131.260700128429	581.315253887091	1005.001385344640	102.941742980812	620.882455234628	1200.581841629937	41.018416387897	603.344891170270	872.307602881856	38.746714630866	358.628121550330	942.153054436789	35.281244874641	274.231589919523	1027.135117084260	95.137620803881	298.888923077814	1154.173980698669	42.617324062302	262.885358633598	1096.730668707858	1107.578474555518	60.492953150056	1324.487148592975	977.654840888151	36.580566790789	952.350044150839	1105.196228214031	664.675232751512	978.097138870703	843.977626381883	665.729229710524	
